<svg width="161" height="61" viewBox="0 0 161 61" fill="none" xmlns="http://www.w3.org/2000/svg">
<path d="M5.88734 47.5441H0.293701V0.448532H5.88734V47.5441ZM35.065 47.5441C34.7424 46.89 34.4804 45.7249 34.2788 44.0487C31.6785 46.7878 28.5743 48.1574 24.9662 48.1574C21.741 48.1574 19.0903 47.2375 17.0141 45.3978C14.9581 43.5378 13.9301 41.187 13.9301 38.3458C13.9301 34.8913 15.2201 32.2136 17.8003 30.3125C20.4005 28.3911 24.049 27.4304 28.7456 27.4304H34.1882V24.8242C34.1882 22.8415 33.6036 21.2675 32.4344 20.1024C31.2653 18.9168 29.5419 18.324 27.2641 18.324C25.2686 18.324 23.5955 18.835 22.245 19.857C20.8944 20.8791 20.2191 22.1157 20.2191 23.5671H14.5952C14.5952 21.9114 15.1697 20.317 16.3187 18.784C17.4879 17.2304 19.0601 16.004 21.0355 15.1046C23.0311 14.2052 25.2182 13.7555 27.5967 13.7555C31.3661 13.7555 34.3192 14.7162 36.4558 16.6377C38.5925 18.5386 39.7012 21.1653 39.7818 24.5176V39.7868C39.7818 42.8325 40.1647 45.2547 40.9307 47.0535V47.5441H35.065ZM25.7825 43.2209C27.5362 43.2209 29.1992 42.761 30.7715 41.8412C32.3437 40.9213 33.4826 39.7255 34.1882 38.2538V31.447H29.8039C22.9504 31.447 19.5237 33.4808 19.5237 37.5486C19.5237 39.3269 20.1083 40.7169 21.2774 41.7185C22.4465 42.7201 23.9482 43.2209 25.7825 43.2209Z" fill="#18171D"/>
<path d="M77.5463 31.2017C77.5463 36.3528 76.3974 40.4716 74.0994 43.5581C71.8217 46.6243 68.7377 48.1573 64.8473 48.1573C61.8439 48.1573 59.3745 47.0433 57.4394 44.8153V60.2992H47.25V14.3687H56.7743L57.0767 17.4348C59.0319 14.982 61.6019 13.7555 64.7868 13.7555C68.8182 13.7555 71.9527 15.2681 74.1902 18.2934C76.4276 21.2982 77.5463 25.4374 77.5463 30.7112V31.2017ZM67.3569 30.5579C67.3569 24.6709 65.6636 21.7274 62.2772 21.7274C59.8583 21.7274 58.2458 22.6063 57.4394 24.3643V37.4259C58.3264 39.2656 59.9591 40.1855 62.3377 40.1855C65.583 40.1855 67.256 37.3442 67.3569 31.6616V30.5579ZM92.8156 47.5441H82.5957V0.448532H92.8156V47.5441ZM117.549 47.5441C117.186 46.8695 116.863 45.8782 116.581 44.57C114.706 46.9616 112.086 48.1573 108.719 48.1573C105.635 48.1573 103.015 47.2171 100.858 45.3365C98.7018 43.4355 97.6226 41.0542 97.6226 38.1925C97.6226 34.5949 98.9336 31.8763 101.554 30.0366C104.174 28.1969 107.984 27.277 112.983 27.277H116.127V25.5294C116.127 22.4837 114.827 20.9609 112.227 20.9609C109.808 20.9609 108.599 22.1669 108.599 24.5789H98.409C98.409 21.3696 99.7492 18.7635 102.43 16.7603C105.131 14.7571 108.568 13.7555 112.741 13.7555C116.913 13.7555 120.209 14.7877 122.628 16.8522C125.047 18.9168 126.287 21.7478 126.347 25.3454V40.0321C126.388 43.0778 126.851 45.408 127.738 47.0228V47.5441H117.549ZM111.169 40.7987C112.438 40.7987 113.486 40.5227 114.313 39.9708C115.16 39.4189 115.764 38.7955 116.127 38.1005V32.7961H113.164C109.616 32.7961 107.843 34.4109 107.843 37.6406C107.843 38.5808 108.155 39.3473 108.78 39.9401C109.405 40.5125 110.201 40.7987 111.169 40.7987ZM144.61 33.072L150.052 14.3687H160.967L147.633 53.0938L147.058 54.5042C145.164 58.7967 141.818 60.943 137.021 60.943C135.69 60.943 134.289 60.7387 132.818 60.3298V52.9405H134.148C135.579 52.9405 136.668 52.7259 137.413 52.2966C138.18 51.8878 138.744 51.1417 139.107 50.0583L139.923 47.8507L128.554 14.3687H139.439L144.61 33.072Z" fill="#F2BB00"/>
</svg>
